<?xml version="1.0" encoding="UTF-8"?>
<svg width="71px" height="92px" viewBox="0 0 71 92" version="1.1" xmlns="http://www.w3.org/2000/svg" xmlns:xlink="http://www.w3.org/1999/xlink">
    <!-- Generator: Sketch 42 (36781) - http://www.bohemiancoding.com/sketch -->
    <title>Page 1</title>
    <desc>Created with Sketch.</desc>
    <defs></defs>
    <g id="Отчеты" stroke="none" stroke-width="1" fill="none" fill-rule="evenodd">
        <g id="Кассы-3-1---Desktop" transform="translate(-897.000000, -312.000000)">
            <g id="Card3-Copy-2" transform="translate(752.000000, 268.000000)">
                <g id="Page-1" transform="translate(145.000000, 44.000000)">
                    <path d="M46.7120731,32.0267103 C49.4410825,29.307676 53.0170259,27.9484056 56.5934646,27.9484056 C60.1689127,27.9484056 63.7448561,29.307676 66.4738656,32.0267103 C69.2003986,34.7452511 70.564408,38.3097575 70.564408,41.8727833 L70.564408,90.6076116 C70.564408,90.9639635 70.429691,91.3203155 70.1567901,91.5912811 C69.8828986,91.8637275 69.5262948,91.9999506 69.1682052,91.9999506 L44.0177335,91.9999506 C43.6596439,91.9999506 43.3025448,91.8637275 43.0291486,91.5912811 C42.7562476,91.3203155 42.6200448,90.9639635 42.6200448,90.6076116 L42.6200448,41.8727833 C42.6200448,38.3097575 43.9850448,34.7452511 46.7120731,32.0267103" id="Fill-29" fill="#353F49"></path>
                    <polygon id="Fill-30" fill="#353F49" points="51.8898113 17.8230258 61.2947406 17.8230258 61.2947406 28.7569099 51.8898113 28.7569099"></polygon>
                    <path d="M51.8900094,1.42145923 C51.8900094,1.22206009 51.966283,1.02167382 52.1198208,0.869656652 C52.2738538,0.717145923 52.4734528,0.640643777 52.6730519,0.640643777 L60.5118962,0.640643777 C60.7114953,0.640643777 60.9120849,0.717145923 61.0651274,0.869656652 C61.2181698,1.02167382 61.2949387,1.22206009 61.2949387,1.42145923 L61.2949387,17.8230258 L51.8900094,17.8230258 L51.8900094,1.42145923 Z" id="Fill-31" fill="#FFE1AF"></path>
                    <path d="M51.107066,3.92056223 C51.107066,3.49116309 51.4597075,3.14024034 51.8901085,3.14024034 L61.2945425,3.14024034 C61.7254387,3.14024034 62.0785755,3.49116309 62.0785755,3.92056223 L62.0785755,7.04530472 C62.0785755,7.47470386 61.7254387,7.82612017 61.2945425,7.82612017 L51.8901085,7.82612017 C51.4597075,7.82612017 51.107066,7.47470386 51.107066,7.04530472 L51.107066,3.92056223 Z" id="Fill-32" fill="#FFE1AF"></path>
                    <polygon id="Fill-33" fill="#CCCBCA" points="56.5930189 79.4235408 70.5644575 79.4235408 70.5644575 45.4467167 56.5930189 45.4467167"></polygon>
                    <polygon id="Fill-34" fill="#FFFFFF" points="56.5930189 71.0315021 70.5644575 71.0315021 70.5644575 53.8382618 56.5930189 53.8382618"></polygon>
                    <polygon id="Fill-35" fill="#F2F2F2" points="21.4739858 49.1987768 0 49.1987768 0 92 21.4739858 92"></polygon>
                    <polygon id="Fill-36" fill="#CCCBCA" points="21.4739858 92 32.2112264 92 32.2112264 49.1987768 21.4739858 49.1987768"></polygon>
                    <polygon id="Fill-37" fill="#353F49" points="21.4740849 49.1986781 26.8434481 38.320073 32.2113255 49.1986781"></polygon>
                    <polygon id="Fill-38" fill="#CCCBCA" points="26.8433491 38.3198262 5.36886792 38.3198262 0 49.1984313 21.4739858 49.1984313"></polygon>
                    <polygon id="Fill-39" fill="#474F59" points="26.8433491 32.96897 5.36886792 32.96897 5.36886792 38.3196781 26.8433491 38.3196781"></polygon>
                    <path d="M15.538316,40.8185837 C17.0068302,42.2810086 17.0068302,44.6525751 15.538316,46.115 C14.0707925,47.5774249 11.6919481,47.5774249 10.2244245,46.115 C8.75640566,44.6525751 8.75640566,42.2810086 10.2244245,40.8185837 C11.6919481,39.3556652 14.0707925,39.3556652 15.538316,40.8185837" id="Fill-40" fill="#91D3D9"></path>
                    <polygon id="Fill-41" fill="#91D3D9" points="15.538316 40.8185837 10.2244245 46.115 9.14173585 45.0370601 14.4571132 39.7401502"></polygon>
                    <path d="M14.4570142,39.7401996 C15.9245377,41.2026245 15.9245377,43.5746845 14.4570142,45.0371094 C12.9885,46.4995343 10.6091604,46.4995343 9.14163679,45.0371094 C7.67312264,43.5746845 7.67312264,41.2026245 9.14163679,39.7401996 C10.6091604,38.2777747 12.9885,38.2777747 14.4570142,39.7401996" id="Fill-42" fill="#C4EDF1"></path>
                    <polygon id="Fill-43" fill="#C4EDF1" points="7.42077594 92 14.0526156 92 -4.9528302e-05 77.9956652 -4.9528302e-05 84.6054506"></polygon>
                    <path d="M29.8802759,66.6883519 L49.0407948,66.6883519 L49.0407948,68.8244893 C56.2110071,74.6983734 51.0645212,85.2147039 46.7278231,91.4054549 C42.3069269,92.2074936 37.1554882,92.1749185 32.2294033,91.4054549 C27.8932005,85.2151974 22.710559,74.6983734 29.8802759,68.8244893 L29.8802759,66.6883519 Z" id="Fill-44" fill="#C4F7F9"></path>
                    <path d="M48.2948491,69.6209013 C54.9068774,75.0372532 50.1610755,84.7347639 46.1621604,90.4428112 C41.5084811,88.5648069 36.417467,88.9305365 32.7593066,90.4428112 C28.7603915,84.7347639 24.0150849,75.0372532 30.6266179,69.6209013 L48.2948491,69.6209013 Z" id="Fill-45" fill="#F37159"></path>
                    <path d="M30.3674363,64.261309 L48.5537335,64.261309 C49.4021533,64.261309 50.0960448,64.9527897 50.0960448,65.7982618 C50.0960448,66.6437339 49.4021533,67.3357082 48.5537335,67.3357082 L30.3674363,67.3357082 C29.5190165,67.3357082 28.8246297,66.6437339 28.8246297,65.7982618 C28.8246297,64.9527897 29.5190165,64.261309 30.3674363,64.261309" id="Fill-46" fill="#EDC984"></path>
                    <path d="M40.3538774,66.5127918 L49.0406462,66.6885 L49.0406462,68.8246373 C56.2113538,74.6985215 51.0648679,85.2148519 46.7281698,91.405603 C44.3220849,91.9741867 42.0096085,92.0082425 39.4608821,91.9988648 L39.4608821,88.9935644 L41.3553396,78.5833498 L39.4608821,69.5758391 L39.4608821,67.2832425 L40.3538774,66.5127918 Z" id="Fill-47" fill="#A2E5E8"></path>
                    <path d="M48.2948491,69.6209013 C54.9068774,75.0372532 50.1610755,84.7342704 46.1621604,90.4428112 C43.9601321,89.5543991 41.660533,89.1679399 39.4609811,89.1679399 L39.4609811,69.6209013 L48.2948491,69.6209013 Z" id="Fill-48" fill="#F37159"></path>
                    <path d="M39.4607335,64.261309 L48.5541297,64.261309 C49.4020542,64.261309 50.096441,64.9527897 50.096441,65.7982618 L50.096441,65.7987554 C50.096441,66.6437339 49.4020542,67.3357082 48.5541297,67.3357082 L39.4607335,67.3357082 L39.4607335,64.261309 Z" id="Fill-49" fill="#EDC984"></path>
                    <path d="M29.6454127,67.1579764 L26.427559,70.5902082 C27.2125825,71.8971609 29.3853892,72.5846931 31.7657193,71.488985 C33.0366156,73.2978906 34.9702005,73.2001652 36.7591627,71.8487918 C37.2742571,72.5911094 38.3519929,73.1310665 39.4609316,73.1833841 C39.489658,73.1843712 39.5020401,66.5568176 39.5020401,65.9393712 L31.1045165,65.869779 L29.6454127,67.1579764 Z" id="Fill-50" fill="#EDC984"></path>
                    <path d="M49.2519835,67.1579764 L52.4703325,70.5902082 C51.6848137,71.8971609 49.5120071,72.5846931 47.1316769,71.488985 C45.8607807,73.2978906 43.9271958,73.2001652 42.1382335,71.8487918 C41.6206627,72.5950579 40.5756156,73.1364957 39.4602382,73.1833841 C39.4602382,70.7688777 39.4706392,68.3716459 39.4706392,65.9541781 L47.7928797,65.869779 L49.2519835,67.1579764 Z" id="Fill-51" fill="#EDC984"></path>
                </g>
            </g>
        </g>
    </g>
</svg>